<?xml version="1.0" encoding="utf-8"?>
<!-- Generator: Adobe Illustrator 27.0.0, SVG Export Plug-In . SVG Version: 6.00 Build 0)  -->
<svg version="1.1" id="Layer_1" xmlns="http://www.w3.org/2000/svg" xmlns:xlink="http://www.w3.org/1999/xlink" x="0px" y="0px"
	 viewBox="0 0 145 47" style="enable-background:new 0 0 145 47;" xml:space="preserve">
<style type="text/css">
	.st0{fill:#FFFFFF;}
</style>
<path class="st0" d="M13.8,23.9l-7.7,7.9V43H0V0h6.1v24.1L29.2,0h7L18,19.3L37.5,43h-7.1L13.8,23.9z"/>
<path class="st0" d="M81.9,39.6l2.4-4.6c2.8,1.9,7.1,3.3,11.3,3.3c5.5,0,7.6-1.7,7.6-4.5c0-7.3-20.4-1-20.4-14
	c0-5.9,5.2-9.7,13.5-9.7c4.2,0,9,1.2,11.8,2.9l-2.5,4.6c-2.9-1.9-6.1-2.6-9.3-2.6c-5.1,0-7.6,1.9-7.6,4.5c0,7.7,20.4,1.4,20.4,14.1
	c0,5.9-5.3,9.6-14,9.6C89.9,43.4,84.6,41.7,81.9,39.6z"/>
<path class="st0" d="M145,23.3V43h-5.6v-4.4c-1.9,2.9-5.6,4.6-10.7,4.6c-7.4,0-11.9-4-11.9-9.6c0-5.3,3.3-9.5,13-9.5h9.3v-1.2
	c0-5-2.9-7.8-8.6-7.8c-3.8,0-7.7,1.4-10.3,3.5l-2.4-4.5c3.3-2.7,8.1-4.2,13.3-4.2C140,10.1,145,14.5,145,23.3z M139.2,33v-4.6h-9
	c-5.8,0-7.5,2.3-7.5,5c0,3.2,2.7,5.3,7.1,5.3C134.2,38.8,137.8,36.9,139.2,33z"/>
<path class="st0" d="M63.1,34.4v8.7l3.7-2.2v-8.7L63.1,34.4z"/>
<path class="st0" d="M73.3,23.8L58.2,15l-8.4-4.9l-8.3,14.5l0.1,13.6l15,8.8l1.5-0.9V33.3l6.7-11.9l6.9,4v12.8l1.5-0.9V23.8z"/>
</svg>
